<svg width="200" height="200" viewBox="0 0 200 200" fill="none" xmlns="http://www.w3.org/2000/svg">
<path fill-rule="evenodd" clip-rule="evenodd" d="M96 53.3333V20H106V53.3333H96Z" fill="#F8CB4E"/>
<path fill-rule="evenodd" clip-rule="evenodd" d="M94 180.833V147.5H104V180.833H94Z" fill="#F8CB4E"/>
<path fill-rule="evenodd" clip-rule="evenodd" d="M64.7419 70.3987L41.1719 46.8283L48.2428 39.7573L71.8132 63.3274L64.7419 70.3987Z" fill="#F8CB4E"/>
<path fill-rule="evenodd" clip-rule="evenodd" d="M154.409 160.065L130.839 136.495L137.91 129.424L161.48 152.994L154.409 160.065Z" fill="#F8CB4E"/>
<path fill-rule="evenodd" clip-rule="evenodd" d="M129.744 64.7415L153.314 41.1714L160.385 48.2423L136.815 71.8127L129.744 64.7415Z" fill="#F8CB4E"/>
<path fill-rule="evenodd" clip-rule="evenodd" d="M38.0781 150.241L61.6483 126.671L68.7195 133.742L45.1491 157.313L38.0781 150.241Z" fill="#F8CB4E"/>
<path fill-rule="evenodd" clip-rule="evenodd" d="M180.833 104H147.5V94H180.833V104Z" fill="#F8CB4E"/>
<path fill-rule="evenodd" clip-rule="evenodd" d="M53.3324 104H19.999V94H53.3324V104Z" fill="#F8CB4E"/>
<path d="M140 97.9995C140 120.091 122.092 138 100 138C77.9088 138 60 120.091 60 97.9995C60 75.9083 77.9088 57.9995 100 57.9995C122.092 57.9995 140 75.9083 140 97.9995Z" fill="#F8CB4E"/>
</svg>
