<svg width="200" height="200" viewBox="0 0 200 200" fill="none" xmlns="http://www.w3.org/2000/svg">
<path fill-rule="evenodd" clip-rule="evenodd" d="M53.332 20.6667V4H59.9987V20.6667H53.332Z" fill="#F8CB4E"/>
<path fill-rule="evenodd" clip-rule="evenodd" d="M51.333 110.667V94H57.9997V110.667H51.333Z" fill="#F8CB4E"/>
<path fill-rule="evenodd" clip-rule="evenodd" d="M25.7334 33.6706L13.9482 21.8854L18.6623 17.1714L30.4474 28.9565L25.7334 33.6706Z" fill="#F8CB4E"/>
<path fill-rule="evenodd" clip-rule="evenodd" d="M91.9002 97.671L80.1152 85.8856L84.829 81.1719L96.6144 92.9569L91.9002 97.671Z" fill="#F8CB4E"/>
<path fill-rule="evenodd" clip-rule="evenodd" d="M77.4004 27.8994L89.1854 16.1143L93.8996 20.8283L82.1146 32.6134L77.4004 27.8994Z" fill="#F8CB4E"/>
<path fill-rule="evenodd" clip-rule="evenodd" d="M17.5684 87.7332L29.3534 75.9482L34.0675 80.662L22.2824 92.4474L17.5684 87.7332Z" fill="#F8CB4E"/>
<path fill-rule="evenodd" clip-rule="evenodd" d="M112.667 58.6667H96V52H112.667V58.6667Z" fill="#F8CB4E"/>
<path fill-rule="evenodd" clip-rule="evenodd" d="M22.6667 58.6667H6V52H22.6667V58.6667Z" fill="#F8CB4E"/>
<path d="M86.001 54C86.001 70.5688 72.5693 84 56.001 84C39.4324 84 26.001 70.5688 26.001 54C26.001 37.4315 39.4324 24 56.001 24C72.5693 24 86.001 37.4315 86.001 54Z" fill="#F8CB4E"/>
<path d="M130 80.0005C130 102.092 112.091 120 90 120C67.9088 120 50 102.092 50 80.0005C50 57.9092 67.9088 40.0005 90 40.0005C112.091 40.0005 130 57.9092 130 80.0005Z" fill="#C5C5C5"/>
<path d="M170 89.9995C170 106.568 156.569 120 140 120C123.432 120 110 106.568 110 89.9995C110 73.4312 123.432 59.9995 140 59.9995C156.569 59.9995 170 73.4312 170 89.9995Z" fill="#C5C5C5"/>
<path d="M79.9991 110C79.9991 126.569 66.5674 140 49.9991 140C33.4305 140 19.999 126.569 19.999 110C19.999 93.4317 33.4305 80 49.9991 80C66.5674 80 79.9991 93.4317 79.9991 110Z" fill="#C5C5C5"/>
<path d="M180 122C180 131.941 171.045 140 160 140C148.954 140 140 131.941 140 122C140 112.059 148.954 104 160 104C171.045 104 180 112.059 180 122Z" fill="#C5C5C5"/>
<path d="M38 100H158V140H48C42.4771 140 38 135.523 38 130V100Z" fill="#C5C5C5"/>
</svg>
