<svg width="200" height="200" viewBox="0 0 200 200" fill="none" xmlns="http://www.w3.org/2000/svg">
<g clip-path="url(#clip0_105_504)">
<path d="M168.399 61.5995C168.399 75.7378 156.938 87.1995 142.799 87.1995C128.661 87.1995 117.199 75.7378 117.199 61.5995C117.199 47.4612 128.661 35.9995 142.799 35.9995C156.938 35.9995 168.399 47.4612 168.399 61.5995Z" fill="#BAD7FF"/>
<path d="M193.999 67.9993C193.999 78.6031 185.402 87.1993 174.799 87.1993C164.195 87.1993 155.599 78.6031 155.599 67.9993C155.599 57.3956 164.195 48.7993 174.799 48.7993C185.402 48.7993 193.999 57.3956 193.999 67.9993Z" fill="#BAD7FF"/>
<path d="M136.399 80.7996C136.399 91.4034 127.803 99.9996 117.199 99.9996C106.595 99.9996 97.999 91.4034 97.999 80.7996C97.999 70.1959 106.595 61.5996 117.199 61.5996C127.803 61.5996 136.399 70.1959 136.399 80.7996Z" fill="#BAD7FF"/>
<path d="M200.398 88.479C200.398 94.8415 194.667 99.999 187.598 99.999C180.529 99.999 174.798 94.8415 174.798 88.479C174.798 82.1165 180.529 76.959 187.598 76.959C194.667 76.959 200.398 82.1165 200.398 88.479Z" fill="#BAD7FF"/>
<path d="M109.519 74.3994H186.319V99.9994H115.919C112.384 99.9994 109.519 97.134 109.519 93.5994V74.3994Z" fill="#BAD7FF"/>
<path d="M129.999 79.999C129.999 102.09 112.09 119.999 89.999 119.999C67.9078 119.999 49.999 102.09 49.999 79.999C49.999 57.9078 67.9078 39.999 89.999 39.999C112.09 39.999 129.999 57.9078 129.999 79.999Z" fill="#C5C5C5"/>
<path d="M169.999 89.9995C169.999 106.568 156.568 120 139.999 120C123.431 120 109.999 106.568 109.999 89.9995C109.999 73.4312 123.431 59.9995 139.999 59.9995C156.568 59.9995 169.999 73.4312 169.999 89.9995Z" fill="#C5C5C5"/>
<path d="M79.9991 110C79.9991 126.568 66.5674 140 49.9991 140C33.4305 140 19.999 126.568 19.999 110C19.999 93.4312 33.4305 79.9995 49.9991 79.9995C66.5674 79.9995 79.9991 93.4312 79.9991 110Z" fill="#C5C5C5"/>
<path d="M179.998 122C179.998 131.941 171.043 140 159.998 140C148.952 140 139.998 131.941 139.998 122C139.998 112.058 148.952 104 159.998 104C171.043 104 179.998 112.058 179.998 122Z" fill="#C5C5C5"/>
<path d="M37.998 100H157.998V140H47.9981C42.4751 140 37.998 135.523 37.998 130V100Z" fill="#C5C5C5"/>
</g>
<defs>
<clipPath id="clip0_105_504">
<rect width="200" height="200" fill="white"/>
</clipPath>
</defs>
</svg>
