<svg width="200" height="200" viewBox="0 0 200 200" fill="none" xmlns="http://www.w3.org/2000/svg">
<path d="M130 80.0005C130 102.092 112.091 120 90 120C67.9088 120 50 102.092 50 80.0005C50 57.9092 67.9088 40.0005 90 40.0005C112.091 40.0005 130 57.9092 130 80.0005Z" fill="#C5C5C5"/>
<path d="M170 89.9995C170 106.568 156.568 120 140 120C123.431 120 110 106.568 110 89.9995C110 73.4312 123.431 59.9995 140 59.9995C156.568 59.9995 170 73.4312 170 89.9995Z" fill="#C5C5C5"/>
<path d="M79.9991 110C79.9991 126.569 66.5674 140 49.9991 140C33.4305 140 19.999 126.569 19.999 110C19.999 93.4317 33.4305 80 49.9991 80C66.5674 80 79.9991 93.4317 79.9991 110Z" fill="#C5C5C5"/>
<path d="M180 122C180 131.941 171.046 140 160.001 140C148.955 140 140 131.941 140 122C140 112.059 148.955 104 160.001 104C171.046 104 180 112.059 180 122Z" fill="#C5C5C5"/>
<path d="M38.0005 100H158V140H48.0005C42.4776 140 38.0005 135.523 38.0005 130V100Z" fill="#C5C5C5"/>
</svg>
