<svg width="200" height="200" viewBox="0 0 200 200" fill="none" xmlns="http://www.w3.org/2000/svg">
<path d="M92 117.833H112L108 157.833H88L92 117.833Z" fill="#F8CB4E"/>
<path d="M100 175.833L126.526 137.833H106L100 175.833Z" fill="#F8CB4E"/>
<path d="M72.7139 153.473C72.3552 154.812 71.6877 156.054 70.7493 157.128C69.8114 158.203 68.6206 159.088 67.246 159.735C65.871 160.381 64.3385 160.775 62.7364 160.895C61.1343 161.015 59.4935 160.858 57.9081 160.433C56.3222 160.008 54.8231 159.324 53.4956 158.419C52.1677 157.514 51.0381 156.406 50.1706 155.159C49.3031 153.912 48.7147 152.55 48.4393 151.15C48.1643 149.75 48.2072 148.341 48.566 147.002L66.5352 128.236L72.7139 153.473Z" fill="#BAD7FF"/>
<path d="M160.214 153.473C159.855 154.812 159.188 156.054 158.249 157.128C157.311 158.203 156.121 159.088 154.746 159.735C153.371 160.381 151.838 160.775 150.236 160.895C148.634 161.015 146.993 160.858 145.408 160.433C143.822 160.008 142.323 159.324 140.996 158.419C139.668 157.514 138.538 156.406 137.671 155.159C136.803 153.912 136.215 152.55 135.939 151.15C135.664 149.75 135.707 148.341 136.066 147.002L154.035 128.236L160.214 153.473Z" fill="#BAD7FF"/>
<path d="M130 60C130 82.0912 112.091 100 90 100C67.9088 100 50 82.0912 50 60C50 37.9086 67.9088 20 90 20C112.091 20 130 37.9086 130 60Z" fill="#BAD7FF"/>
<path d="M170 70.0005C170 86.5688 156.569 100 140 100C123.432 100 110 86.5688 110 70.0005C110 53.4317 123.432 40.0005 140 40.0005C156.569 40.0005 170 53.4317 170 70.0005Z" fill="#BAD7FF"/>
<path d="M79.9991 89.9995C79.9991 106.568 66.5674 120 49.9991 120C33.4305 120 19.999 106.568 19.999 89.9995C19.999 73.4312 33.4305 59.9995 49.9991 59.9995C66.5674 59.9995 79.9991 73.4312 79.9991 89.9995Z" fill="#BAD7FF"/>
<path d="M180 102C180 111.941 171.045 120 160 120C148.954 120 140 111.941 140 102C140 92.0583 148.954 83.9995 160 83.9995C171.045 83.9995 180 92.0583 180 102Z" fill="#BAD7FF"/>
<path d="M38 80H158V120H48C42.4771 120 38 115.523 38 110V80Z" fill="#BAD7FF"/>
</svg>
