<svg width="200" height="200" viewBox="0 0 200 200" fill="none" xmlns="http://www.w3.org/2000/svg">
<path d="M64.38 153.473C64.0212 154.812 63.3537 156.054 62.4154 157.128C61.4775 158.203 60.2867 159.088 58.9121 159.735C57.5371 160.381 56.0046 160.775 54.4025 160.895C52.8004 161.015 51.1596 160.858 49.5742 160.433C47.9883 160.008 46.4892 159.324 45.1617 158.419C43.8337 157.514 42.7042 156.406 41.8367 155.159C40.9691 153.912 40.3809 152.55 40.1056 151.15C39.8303 149.75 39.8732 148.341 40.232 147.002L58.2012 128.236L64.38 153.473Z" fill="#BAD7FF"/>
<path d="M106.047 153.473C105.688 154.812 105.021 156.054 104.082 157.128C103.144 158.203 101.954 159.088 100.579 159.735C99.204 160.381 97.6715 160.775 96.0694 160.895C94.4673 161.015 92.8265 160.858 91.2411 160.433C89.6552 160.008 88.1561 159.324 86.8286 158.419C85.5007 157.514 84.3711 156.406 83.5036 155.159C82.6361 153.912 82.0477 152.55 81.7723 151.15C81.4973 149.75 81.5402 148.341 81.899 147.002L99.8682 128.236L106.047 153.473Z" fill="#BAD7FF"/>
<path d="M151.88 153.473C151.521 154.812 150.854 156.054 149.915 157.128C148.977 158.203 147.787 159.088 146.412 159.735C145.037 160.381 143.504 160.775 141.902 160.895C140.3 161.015 138.66 160.858 137.074 160.433C135.488 160.008 133.989 159.324 132.662 158.419C131.334 157.514 130.204 156.406 129.337 155.159C128.469 153.912 127.881 152.55 127.605 151.15C127.33 149.75 127.373 148.341 127.732 147.002L145.701 128.236L151.88 153.473Z" fill="#BAD7FF"/>
<path d="M130 60C130 82.0912 112.091 100 90 100C67.9088 100 50 82.0912 50 60C50 37.9086 67.9088 20 90 20C112.091 20 130 37.9086 130 60Z" fill="#C5C5C5"/>
<path d="M170 70.0005C170 86.5688 156.568 100 140 100C123.431 100 110 86.5688 110 70.0005C110 53.4317 123.431 40.0005 140 40.0005C156.568 40.0005 170 53.4317 170 70.0005Z" fill="#C5C5C5"/>
<path d="M79.9991 89.9995C79.9991 106.568 66.5674 120 49.9991 120C33.4305 120 19.999 106.568 19.999 89.9995C19.999 73.4312 33.4305 59.9995 49.9991 59.9995C66.5674 59.9995 79.9991 73.4312 79.9991 89.9995Z" fill="#C5C5C5"/>
<path d="M180 102C180 111.941 171.046 120 160 120C148.954 120 140 111.941 140 102C140 92.0583 148.954 83.9995 160 83.9995C171.046 83.9995 180 92.0583 180 102Z" fill="#C5C5C5"/>
<path d="M38 80H158V120H48C42.4771 120 38 115.523 38 110V80Z" fill="#C5C5C5"/>
</svg>
