<svg width="200" height="200" viewBox="0 0 200 200" fill="none" xmlns="http://www.w3.org/2000/svg">
<path d="M130 60C130 82.0912 112.091 100 90 100C67.9088 100 50 82.0912 50 60C50 37.9086 67.9088 20 90 20C112.091 20 130 37.9086 130 60Z" fill="#BAD7FF"/>
<path d="M170 70.0005C170 86.5688 156.569 100 140 100C123.432 100 110 86.5688 110 70.0005C110 53.4317 123.432 40.0005 140 40.0005C156.569 40.0005 170 53.4317 170 70.0005Z" fill="#BAD7FF"/>
<path d="M79.9991 89.9995C79.9991 106.568 66.5674 120 49.9991 120C33.4305 120 19.999 106.568 19.999 89.9995C19.999 73.4312 33.4305 59.9995 49.9991 59.9995C66.5674 59.9995 79.9991 73.4312 79.9991 89.9995Z" fill="#BAD7FF"/>
<path d="M180 102C180 111.941 171.045 120 160 120C148.954 120 140 111.941 140 102C140 92.0583 148.954 83.9995 160 83.9995C171.045 83.9995 180 92.0583 180 102Z" fill="#BAD7FF"/>
<path d="M38 80H158V120H48C42.4771 120 38 115.523 38 110V80Z" fill="#BAD7FF"/>
<path d="M86.001 117.833H106.001L102.001 157.833H82.001L86.001 117.833Z" fill="#F8CB4E"/>
<path d="M94 175.833L120.526 137.833H100L94 175.833Z" fill="#F8CB4E"/>
</svg>
