<svg width="200" height="200" viewBox="0 0 200 200" fill="none" xmlns="http://www.w3.org/2000/svg">
<path d="M130 60C130 82.0912 112.091 100 90 100C67.9088 100 50 82.0912 50 60C50 37.9086 67.9088 20 90 20C112.091 20 130 37.9086 130 60Z" fill="#C5C5C5"/>
<path d="M170 70.0005C170 86.5688 156.568 100 140 100C123.431 100 110 86.5688 110 70.0005C110 53.4317 123.431 40.0005 140 40.0005C156.568 40.0005 170 53.4317 170 70.0005Z" fill="#C5C5C5"/>
<path d="M79.9991 89.9995C79.9991 106.568 66.5674 120 49.9991 120C33.4305 120 19.999 106.568 19.999 89.9995C19.999 73.4312 33.4305 59.9995 49.9991 59.9995C66.5674 59.9995 79.9991 73.4312 79.9991 89.9995Z" fill="#C5C5C5"/>
<path d="M180 102C180 111.941 171.046 120 160.001 120C148.955 120 140 111.941 140 102C140 92.0583 148.955 83.9995 160.001 83.9995C171.046 83.9995 180 92.0583 180 102Z" fill="#C5C5C5"/>
<path d="M38.0005 80H158V120H48.0005C42.4776 120 38.0005 115.523 38.0005 110V80Z" fill="#C5C5C5"/>
<path d="M68 131C68 134.866 64.8663 138 61 138C57.1342 138 54 134.866 54 131C54 127.134 57.1342 124 61 124C64.8663 124 68 127.134 68 131Z" fill="#E3E3E3"/>
<path d="M87.999 153C87.999 156.866 84.8649 160 80.999 160C77.1332 160 73.999 156.866 73.999 153C73.999 149.134 77.1332 146 80.999 146C84.8649 146 87.999 149.134 87.999 153Z" fill="#E3E3E3"/>
<path d="M128 153C128 156.866 124.865 160 121 160C117.133 160 114 156.866 114 153C114 149.134 117.133 146 121 146C124.865 146 128 149.134 128 153Z" fill="#E3E3E3"/>
<path d="M106 131C106 134.866 102.867 138 99.0005 138C95.1347 138 92.0005 134.866 92.0005 131C92.0005 127.134 95.1347 124 99.0005 124C102.867 124 106 127.134 106 131Z" fill="#E3E3E3"/>
<path d="M106 173C106 176.866 102.867 180 99.0005 180C95.1347 180 92.0005 176.866 92.0005 173C92.0005 169.135 95.1347 166 99.0005 166C102.867 166 106 169.135 106 173Z" fill="#E3E3E3"/>
<path d="M144.001 131C144.001 134.866 140.867 138 137.001 138C133.135 138 130.001 134.866 130.001 131C130.001 127.134 133.135 124 137.001 124C140.867 124 144.001 127.134 144.001 131Z" fill="#E3E3E3"/>
</svg>
