<svg width="200" height="200" viewBox="0 0 200 200" fill="none" xmlns="http://www.w3.org/2000/svg">
<path d="M130 60C130 82.0912 112.091 100 90 100C67.9088 100 50 82.0912 50 60C50 37.9086 67.9088 20 90 20C112.091 20 130 37.9086 130 60Z" fill="#C5C5C5"/>
<path d="M170 70.0005C170 86.5688 156.568 100 140 100C123.431 100 110 86.5688 110 70.0005C110 53.4317 123.431 40.0005 140 40.0005C156.568 40.0005 170 53.4317 170 70.0005Z" fill="#C5C5C5"/>
<path d="M79.9991 89.9995C79.9991 106.568 66.5674 120 49.9991 120C33.4305 120 19.999 106.568 19.999 89.9995C19.999 73.4312 33.4305 59.9995 49.9991 59.9995C66.5674 59.9995 79.9991 73.4312 79.9991 89.9995Z" fill="#C5C5C5"/>
<path d="M180 102C180 111.941 171.046 120 160 120C148.955 120 140 111.941 140 102C140 92.0583 148.955 83.9995 160 83.9995C171.046 83.9995 180 92.0583 180 102Z" fill="#C5C5C5"/>
<path d="M38.0005 80H158V120H48.0005C42.4776 120 38.0005 115.523 38.0005 110V80Z" fill="#C5C5C5"/>
<path d="M68 135C68 138.866 64.8663 142 61 142C57.1342 142 54 138.866 54 135C54 131.134 57.1342 128 61 128C64.8663 128 68 131.134 68 135Z" fill="#E3E3E3"/>
<path d="M87.999 154C87.999 157.866 84.8649 161 80.999 161C77.1332 161 73.999 157.866 73.999 154C73.999 150.134 77.1332 147 80.999 147C84.8649 147 87.999 150.134 87.999 154Z" fill="#E3E3E3"/>
<path d="M128 154C128 157.866 124.865 161 121 161C117.133 161 114 157.866 114 154C114 150.134 117.133 147 121 147C124.865 147 128 150.134 128 154Z" fill="#E3E3E3"/>
<path d="M106 135C106 138.866 102.867 142 99.0005 142C95.1347 142 92.0005 138.866 92.0005 135C92.0005 131.134 95.1347 128 99.0005 128C102.867 128 106 131.134 106 135Z" fill="#E3E3E3"/>
<path d="M106 173C106 176.866 102.867 180 99.0005 180C95.1347 180 92.0005 176.866 92.0005 173C92.0005 169.135 95.1347 166 99.0005 166C102.867 166 106 169.135 106 173Z" fill="#E3E3E3"/>
<path d="M144.001 135C144.001 138.866 140.867 142 137.001 142C133.135 142 130.001 138.866 130.001 135C130.001 131.134 133.135 128 137.001 128C140.867 128 144.001 131.134 144.001 135Z" fill="#E3E3E3"/>
</svg>
