<svg width="200" height="200" viewBox="0 0 200 200" fill="none" xmlns="http://www.w3.org/2000/svg">
<path d="M130 60C130 82.0913 112.091 100 90 100C67.9088 100 50 82.0913 50 60C50 37.9086 67.9088 20 90 20C112.091 20 130 37.9086 130 60Z" fill="#C5C5C5"/>
<path d="M170 70.0004C170 86.5692 156.568 100 140 100C123.431 100 110 86.5692 110 70.0004C110 53.4321 123.431 40.0005 140 40.0005C156.568 40.0005 170 53.4321 170 70.0004Z" fill="#C5C5C5"/>
<path d="M79.9991 89.9995C79.9991 106.568 66.5674 120 49.9991 120C33.4305 120 19.999 106.568 19.999 89.9995C19.999 73.4308 33.4305 59.9995 49.9991 59.9995C66.5674 59.9995 79.9991 73.4308 79.9991 89.9995Z" fill="#C5C5C5"/>
<path d="M180 102C180 111.941 171.046 120 160.001 120C148.955 120 140 111.941 140 102C140 92.0583 148.955 83.9995 160.001 83.9995C171.046 83.9995 180 92.0583 180 102Z" fill="#C5C5C5"/>
<path d="M38.0005 80H158V120H48.0005C42.4776 120 38.0005 115.523 38.0005 110V80Z" fill="#C5C5C5"/>
<path d="M114.999 130H24.999C22.2376 130 19.999 132.239 19.999 135C19.999 137.761 22.2376 140 24.999 140H114.999C117.76 140 119.999 137.761 119.999 135C119.999 132.239 117.76 130 114.999 130Z" fill="#C5C5C5"/>
<path d="M175.001 144H85.001C82.2395 144 80.001 146.239 80.001 149C80.001 151.761 82.2395 154 85.001 154H175.001C177.762 154 180.001 151.761 180.001 149C180.001 146.239 177.762 144 175.001 144Z" fill="#C5C5C5"/>
<path d="M145 158H55C52.2386 158 50 160.238 50 163C50 165.761 52.2386 168 55 168H145C147.761 168 150 165.761 150 163C150 160.238 147.761 158 145 158Z" fill="#C5C5C5"/>
</svg>
